<?xml version="1.0" encoding="UTF-8" standalone="no"?>
<!-- Generator: Adobe Illustrator 18.1.1, SVG Export Plug-In . SVG Version: 6.00 Build 0)  -->

<svg
   xmlns:dc="http://purl.org/dc/elements/1.1/"
   xmlns:cc="http://creativecommons.org/ns#"
   xmlns:rdf="http://www.w3.org/1999/02/22-rdf-syntax-ns#"
   xmlns:svg="http://www.w3.org/2000/svg"
   xmlns="http://www.w3.org/2000/svg"
   xmlns:sodipodi="http://sodipodi.sourceforge.net/DTD/sodipodi-0.dtd"
   xmlns:inkscape="http://www.inkscape.org/namespaces/inkscape"
   version="1.1"
   id="Capa_1"
   x="0px"
   y="0px"
   viewBox="0 0 17.253 17.253"
   style="enable-background:new 0 0 17.253 17.253;"
   xml:space="preserve"
   sodipodi:docname="chess-set.svg"
   inkscape:version="0.92.4 (5da689c313, 2019-01-14)"><metadata
   id="metadata51"><rdf:RDF><cc:Work
       rdf:about=""><dc:format>image/svg+xml</dc:format><dc:type
         rdf:resource="http://purl.org/dc/dcmitype/StillImage" /></cc:Work></rdf:RDF></metadata><defs
   id="defs49" /><sodipodi:namedview
   pagecolor="#ffffff"
   bordercolor="#666666"
   borderopacity="1"
   objecttolerance="10"
   gridtolerance="10"
   guidetolerance="10"
   inkscape:pageopacity="0"
   inkscape:pageshadow="2"
   inkscape:window-width="1920"
   inkscape:window-height="1017"
   id="namedview47"
   showgrid="false"
   inkscape:zoom="1.2090448"
   inkscape:cx="-631.08786"
   inkscape:cy="63.223109"
   inkscape:window-x="1912"
   inkscape:window-y="-8"
   inkscape:window-maximized="1"
   inkscape:current-layer="Capa_1" />
<g
   id="g14"
   transform="matrix(14.982638,0,0,14.110068,-1088.0225,-118.50972)"
   style="fill:#000000">
	<g
   id="g12"
   style="fill:#000000">
		<path
   style="fill:#000000"
   d="m 5.224,12.875 c 0.059,10e-4 2.15,0 3.239,0 1.085,0 3.673,10e-4 3.732,0 0.1,-0.004 0.343,-0.196 0.278,-0.436 -0.072,-0.3 -0.338,-0.365 -0.435,-0.365 -0.07,0 -2.173,0 -3.258,0 0,0 -0.257,0 -0.638,0 -1.087,0 -2.694,0 -2.763,0 -0.096,0 -0.363,0.065 -0.436,0.365 -0.062,0.239 0.181,0.432 0.281,0.436 z"
   id="path2"
   inkscape:connector-curvature="0" />
		<path
   style="fill:#000000"
   d="M 11.295,11.927 C 10.67,10.636 9.862,7.002 9.63,5.481 h 0.704 c 0.2,0 0.364,-0.179 0.364,-0.401 0,-0.221 -0.164,-0.4 -0.364,-0.4 H 9.483 L 9.481,4.662 C 10.221,4.267 10.733,3.423 10.733,2.45 10.733,1.096 9.745,0 8.525,0 7.305,0 6.318,1.097 6.318,2.45 c 0,0.974 0.51,1.817 1.25,2.212 L 7.567,4.68 H 6.715 c -0.202,0 -0.364,0.179 -0.364,0.4 0,0.222 0.162,0.401 0.364,0.401 H 7.419 C 7.191,6.995 6.526,10.445 5.956,11.927 Z"
   id="path4"
   inkscape:connector-curvature="0" />
		<g
   id="g10"
   style="fill:#000000">
			<path
   style="fill:#000000"
   d="M 12.788,16.59 C 12.711,16.376 12.442,16.138 12.442,16.138 H 4.81 c 0,0 -0.267,0.21 -0.357,0.437 -0.09,0.227 -0.092,0.678 -0.092,0.678 h 8.531 c 0,-0.001 -0.026,-0.448 -0.104,-0.663 z"
   id="path6"
   inkscape:connector-curvature="0" />
			<polygon
   style="fill:#000000"
   points="4.87,15.967 12.382,15.967 11.995,13.114 5.354,13.114 "
   id="polygon8" />
		</g>
	</g>
</g>
<g
   id="g16">
</g>
<g
   id="g18">
</g>
<g
   id="g20">
</g>
<g
   id="g22">
</g>
<g
   id="g24">
</g>
<g
   id="g26">
</g>
<g
   id="g28">
</g>
<g
   id="g30">
</g>
<g
   id="g32">
</g>
<g
   id="g34">
</g>
<g
   id="g36">
</g>
<g
   id="g38">
</g>
<g
   id="g40">
</g>
<g
   id="g42">
</g>
<g
   id="g44">
</g>
<g
   id="g916"
   transform="matrix(1.2060559,0,0,1.127673,-334.74834,-211.11527)"
   style="fill:#000000"><g
     id="g860"
     style="fill:#000000">
	<path
   id="path858"
   d="m 197.333,256 h -1.641 c 1.878,-3.337 7.061,-14.536 -0.605,-25.6 -7.554,-10.905 -21.491,-39.547 -20.904,-64.401 4.409,-0.01 7.816,-3.587 7.816,-7.999 v -1 c 0,-4.418 -3.582,-8 -8,-8 4.418,0 8,-3.582 8,-8 v -1 c 0,-4.418 -3.249,-8 -7.667,-8 h -3.55 c -1.006,-16.142 1.307,-29.861 4.798,-40.724 1.121,-3.487 2.432,-6.186 3.752,-8.276 h 2 c 4.418,0 7.667,-3.582 7.667,-8 v -1 c 0,-4.343 -3.463,-7.87 -7.777,-7.988 C 179.087,52.771 169,42.203 156,39.363 V 27 h 12 V 12 H 156 V 0 h -15 v 12 h -12 v 15 h 12 V 39.595 C 129,42.745 119.197,53.107 117.112,66 h -0.779 C 111.915,66 108,69.582 108,74 v 1 c 0,4.418 3.915,8 8.333,8 h 3 c 1.32,2.091 2.631,4.789 3.752,8.276 3.491,10.862 5.804,24.582 4.798,40.724 h -4.55 c -4.418,0 -8.333,3.582 -8.333,8 v 1 c 0,4.418 3.582,8 8,8 -4.418,0 -8,3.582 -8,8 v 1 c 0,4.418 3.915,8 8.333,8 h 1.053 c 0.588,24.855 -13.183,53.495 -20.737,64.4 -7.664,11.063 -2.482,22.263 -0.604,25.6 h -1.711 c -4.418,0 -8.333,3.582 -8.333,8 v 9 c 0,3.727 3,6.849 6,7.737 V 298 h 100 v -17.263 c 4,-0.889 6,-4.011 6,-7.737 v -9 c -0.001,-4.418 -3.25,-8 -7.668,-8 z"
   inkscape:connector-curvature="0"
   style="fill:#000000" />
</g><g
     id="g862"
     style="fill:#000000">
</g><g
     id="g864"
     style="fill:#000000">
</g><g
     id="g866"
     style="fill:#000000">
</g><g
     id="g868"
     style="fill:#000000">
</g><g
     id="g870"
     style="fill:#000000">
</g><g
     id="g872"
     style="fill:#000000">
</g><g
     id="g874"
     style="fill:#000000">
</g><g
     id="g876"
     style="fill:#000000">
</g><g
     id="g878"
     style="fill:#000000">
</g><g
     id="g880"
     style="fill:#000000">
</g><g
     id="g882"
     style="fill:#000000">
</g><g
     id="g884"
     style="fill:#000000">
</g><g
     id="g886"
     style="fill:#000000">
</g><g
     id="g888"
     style="fill:#000000">
</g><g
     id="g890"
     style="fill:#000000">
</g></g><g
   id="g1030"
   transform="matrix(1.1230948,0,0,1.0631338,-651.41168,53.664809)"
   style="fill:#000000"><g
     transform="matrix(0.83162429,0,0,1.2158908,-206.42009,-182.81055)"
     id="g991"
     style="fill:#000000"><g
       id="g935"
       style="fill:#000000">
	<path
   inkscape:connector-curvature="0"
   d="m 188.03,113.487 c -21.775,11.727 -23.851,-9.635 -23.851,-9.635 -18.021,-2.093 -31.403,-22.201 -31.403,-22.201 -24.312,12.558 -10.752,47.996 -0.284,61.603 1.396,1.809 2.494,3.747 3.417,5.745 h 17.354 v 25.215 h 24.045 v 31.269 H 11.865 V 174.214 H 35.913 V 148.999 H 52.98 C 32.177,122.648 37.588,97.788 43.558,81.335 50.767,61.52 60.511,50.644 74.718,39.07 95.84,21.849 134.863,19.695 134.863,19.695 c 0.255,-1.463 1.448,-3.177 2.974,-4.926 -4.688,0.127 -10.427,0.52 -16.964,1.362 -4.469,0.872 -9.387,1.356 -14.378,2.816 -5.104,1.105 -10.285,2.878 -15.581,4.912 -5.29,1.974 -10.489,4.775 -15.628,7.692 -4.876,3.402 -10.06,6.537 -14.156,11.018 -4.702,3.83 -8.127,8.819 -11.645,13.586 -3.673,4.682 -5.479,10.4 -8.228,15.321 -2.039,5.249 -3.177,10.666 -4.714,15.617 -1.392,4.994 -1.368,9.992 -2.069,14.49 -0.594,4.492 -1.049,8.629 -0.704,12.317 0.116,3.688 0.195,6.928 0.278,9.563 0.156,5.297 0.254,8.335 0.254,8.335 l -0.733,0.07 c 0,0 -0.629,-2.967 -1.457,-8.311 -0.393,-2.671 -0.877,-5.923 -1.41,-9.682 -0.807,-3.735 -0.831,-8.015 -0.479,-12.726 0.266,-3.369 0.313,-7.037 0.629,-10.796 L 22.051,90.164 31.065,79.132 21.605,77.763 35.122,67.41 25.206,64.256 39.182,56.587 28.59,53.434 46.846,47.562 34.226,43.956 54.73,38.32 43.455,33.139 64.184,30.432 54.048,24.58 79.355,21.929 c 0.112,-0.059 0.239,-0.127 0.354,-0.163 L 68.018,16.47 94.614,14.212 82.44,7.9 l 50.312,4.007 c 2.72,0.106 5.096,0.319 7.259,0.556 C 146.478,6.271 156.632,0 156.632,0 c -2.08,2.084 -2.932,13.409 -2.932,13.409 2.099,-3.771 8.795,-7.542 8.795,-7.542 -3.759,8.781 0,27.624 0,27.624 10.899,10.899 23.046,48.578 23.046,48.578 l 4.623,6.694 c 5.846,8.41 3.688,21.591 -2.134,24.724 z"
   id="path933"
   style="fill:#000000" />
</g><g
       id="g937"
       style="fill:#000000">
</g><g
       id="g939"
       style="fill:#000000">
</g><g
       id="g941"
       style="fill:#000000">
</g><g
       id="g943"
       style="fill:#000000">
</g><g
       id="g945"
       style="fill:#000000">
</g><g
       id="g947"
       style="fill:#000000">
</g><g
       id="g949"
       style="fill:#000000">
</g><g
       id="g951"
       style="fill:#000000">
</g><g
       id="g953"
       style="fill:#000000">
</g><g
       id="g955"
       style="fill:#000000">
</g><g
       id="g957"
       style="fill:#000000">
</g><g
       id="g959"
       style="fill:#000000">
</g><g
       id="g961"
       style="fill:#000000">
</g><g
       id="g963"
       style="fill:#000000">
</g><g
       id="g965"
       style="fill:#000000">
</g></g><path
     inkscape:connector-curvature="0"
     id="path993"
     d="M -197.31606,29.479893 H -58.785618"
     style="fill:#000000;stroke:#ffffff;stroke-width:3;stroke-linecap:butt;stroke-linejoin:miter;stroke-miterlimit:4;stroke-dasharray:none;stroke-opacity:1" /><path
     inkscape:connector-curvature="0"
     id="path993-8"
     d="M -197.63924,-0.58484717 H -59.108798"
     style="fill:#000000;stroke:#ffffff;stroke-width:3;stroke-linecap:butt;stroke-linejoin:miter;stroke-miterlimit:4;stroke-dasharray:none;stroke-opacity:1" /></g><g
   id="g1119"
   transform="matrix(0.9816476,0,0,0.97671403,-631.04681,-165.23092)"
   style="fill:#000000"><g
     id="g1063"
     style="fill:#000000">
	<path
   id="path1061"
   d="m 206.873,255.08 h -3.41 c 2.214,-3.337 8.32,-14.536 -0.712,-25.6 -8.9,-10.905 -25.137,-39.546 -24.448,-64.4 h 3.57 c 4.418,0 7.667,-3.582 7.667,-8 v -1 c 0,-4.418 -3.249,-8 -7.667,-8 h -4.333 v -4.285 c 13,-8.971 20.511,-23.502 20.511,-39.914 0,-10.332 -7.011,-26.11 -15.819,-41.721 l -18.553,18.595 c -3.111,3.111 -8.182,3.111 -11.294,0.001 l -0.921,-0.933 c -3.111,-3.11 -3.106,-8.202 0.005,-11.313 l 21.676,-21.674 c -4.444,-7.069 -8.869,-13.678 -12.703,-19.224 2.881,-2.93 4.663,-6.944 4.663,-11.379 C 165.106,7.268 157.841,0 148.874,0 139.907,0 132.64,7.268 132.64,16.233 c 0,4.434 1.781,8.448 4.662,11.379 -14.585,21.101 -37.94,57.587 -37.94,76.269 0,16.853 8.178,31.724 21.178,40.625 v 3.574 h -4.667 c -4.418,0 -8.333,3.582 -8.333,8 v 1 c 0,4.418 3.915,8 8.333,8 h 3.571 c 0.689,24.855 -15.547,53.495 -24.448,64.4 -9.031,11.064 -2.926,22.263 -0.712,25.6 h -3.411 c -4.418,0 -8.333,3.582 -8.333,8 v 9 c 0,4.078 3,7.438 7,7.931 v 17.069 h 118 v -17.069 c 4,-0.493 7,-3.853 7,-7.931 v -9 c 0,-4.418 -3.249,-8 -7.667,-8 z"
   inkscape:connector-curvature="0"
   style="fill:#000000" />
</g><g
     id="g1065"
     style="fill:#000000">
</g><g
     id="g1067"
     style="fill:#000000">
</g><g
     id="g1069"
     style="fill:#000000">
</g><g
     id="g1071"
     style="fill:#000000">
</g><g
     id="g1073"
     style="fill:#000000">
</g><g
     id="g1075"
     style="fill:#000000">
</g><g
     id="g1077"
     style="fill:#000000">
</g><g
     id="g1079"
     style="fill:#000000">
</g><g
     id="g1081"
     style="fill:#000000">
</g><g
     id="g1083"
     style="fill:#000000">
</g><g
     id="g1085"
     style="fill:#000000">
</g><g
     id="g1087"
     style="fill:#000000">
</g><g
     id="g1089"
     style="fill:#000000">
</g><g
     id="g1091"
     style="fill:#000000">
</g><g
     id="g1093"
     style="fill:#000000">
</g></g><g
   id="g1179"
   transform="matrix(1.0583307,0,0,1.0583307,-472.9811,-190.20679)"
   style="fill:#000000"><g
     id="g1123"
     style="fill:#000000">
	<path
   id="path1121"
   d="m 207.218,255.77 h -3.369 c 2.214,-3.337 8.32,-14.536 -0.712,-25.6 -8.9,-10.905 -25.129,-39.546 -24.438,-64.4 h 3.519 c 4.418,0 7.667,-3.582 7.667,-8 v -1 c 0,-4.418 -3.582,-8 -8,-8 4.418,0 8,-3.582 8,-8 v -1 c 0,-4.418 -3.249,-8 -7.667,-8 h -4.626 c -2.064,-21.741 1.078,-43.054 5.959,-54.666 1.86,-4.425 4.118,-7.79 6.296,-10.334 h 1.371 c 4.418,0 7.667,-3.582 7.667,-8 v -1 c 0,-4.418 -3.249,-8 -7.667,-8 h -9.8 C 179.615,38.874 172.42,29.804 162.663,25.387 164.446,22.78 165.492,19.63 165.492,16.233 165.492,7.267 158.227,0 149.26,0 c -8.967,0 -16.234,7.267 -16.234,16.232 0,3.385 1.037,6.525 2.809,9.127 -9.788,4.406 -17.01,13.49 -18.816,24.41 h -10.8 c -4.418,0 -8.333,3.582 -8.333,8 v 1 c 0,4.418 3.915,8 8.333,8 h 2.371 c 2.178,2.544 4.436,5.909 6.296,10.334 4.881,11.612 8.023,32.925 5.959,54.666 h -4.626 c -4.418,0 -8.333,3.582 -8.333,8 v 1 c 0,4.418 3.582,8 8,8 -4.418,0 -8,3.582 -8,8 v 1 c 0,4.418 3.915,8 8.333,8 h 3.602 c 0.692,24.854 -15.536,53.495 -24.438,64.4 -9.031,11.063 -2.926,22.263 -0.712,25.6 h -3.452 c -4.418,0 -8.333,3.582 -8.333,8 v 9 c 0,4.078 3,7.438 7,7.931 v 17.069 h 118 V 280.7 c 4,-0.493 7,-3.853 7,-7.931 v -9 c -0.001,-4.417 -3.25,-7.999 -7.668,-7.999 z"
   inkscape:connector-curvature="0"
   style="fill:#000000" />
</g><g
     id="g1125"
     style="fill:#000000">
</g><g
     id="g1127"
     style="fill:#000000">
</g><g
     id="g1129"
     style="fill:#000000">
</g><g
     id="g1131"
     style="fill:#000000">
</g><g
     id="g1133"
     style="fill:#000000">
</g><g
     id="g1135"
     style="fill:#000000">
</g><g
     id="g1137"
     style="fill:#000000">
</g><g
     id="g1139"
     style="fill:#000000">
</g><g
     id="g1141"
     style="fill:#000000">
</g><g
     id="g1143"
     style="fill:#000000">
</g><g
     id="g1145"
     style="fill:#000000">
</g><g
     id="g1147"
     style="fill:#000000">
</g><g
     id="g1149"
     style="fill:#000000">
</g><g
     id="g1151"
     style="fill:#000000">
</g><g
     id="g1153"
     style="fill:#000000">
</g></g><g
   id="g1239"
   transform="matrix(0.88420611,0,0,0.87232697,-765.9075,-135.02216)"
   style="fill:#000000"><g
     id="g1183"
     style="fill:#000000">
	<path
   id="path1181"
   d="m 216.923,246.538 c 3.457,-6.556 9.963,-22.777 -1.666,-39.137 C 200.508,186.65 179.942,125 193.61,83 H 207 V 0 H 191 V 17 H 175 V 0 H 157 V 17 H 141 V 0 H 124 V 17 H 108 V 0 H 91 v 83 h 14.057 c 13.668,42 -6.98,103.65 -21.73,124.401 -11.629,16.359 -5.373,32.706 -1.916,39.262 C 77.347,247.044 74,250.337 74,254.5 v 18 c 0,4.418 3.915,8.5 8.333,8.5 H 83 v 17 h 132 v -17 h 1.333 c 4.418,0 7.667,-4.082 7.667,-8.5 v -18 c 0,-4.162 -3.014,-7.58 -7.077,-7.962 z"
   inkscape:connector-curvature="0"
   style="fill:#000000" />
</g><g
     id="g1185"
     style="fill:#000000">
</g><g
     id="g1187"
     style="fill:#000000">
</g><g
     id="g1189"
     style="fill:#000000">
</g><g
     id="g1191"
     style="fill:#000000">
</g><g
     id="g1193"
     style="fill:#000000">
</g><g
     id="g1195"
     style="fill:#000000">
</g><g
     id="g1197"
     style="fill:#000000">
</g><g
     id="g1199"
     style="fill:#000000">
</g><g
     id="g1201"
     style="fill:#000000">
</g><g
     id="g1203"
     style="fill:#000000">
</g><g
     id="g1205"
     style="fill:#000000">
</g><g
     id="g1207"
     style="fill:#000000">
</g><g
     id="g1209"
     style="fill:#000000">
</g><g
     id="g1211"
     style="fill:#000000">
</g><g
     id="g1213"
     style="fill:#000000">
</g></g></svg>